<svg width="285" height="40" viewBox="0 0 285 40" fill="none" xmlns="http://www.w3.org/2000/svg">
<path d="M74.4 21.7C74.4 24.6 73.4 26.8 71.4 28.4C69.4 30 66.5 30.5 62.9 30.5H53.9999L55.2999 26.3H62.7999C65.9999 26.3 67.9999 25.6 68.7999 23.5H59.9V19.6H68.7C67.9 17.8 66.0999 17.2 63.2999 17.1C63.1999 17.1 63.0999 17.1 63.0999 17.1C62.8999 17.1 62.7999 17.1 62.5999 17.1H54.5999V12.9H63.2999C66.6999 12.9 69.4 13.4 71.4 15C73.4 16.6 74.4 18.8 74.4 21.7Z" fill="#077A97"/>
<path d="M92.9 12.9V19.4H82.7999V12.9H77.5999V30.4H82.7999V23.6H92.9V30.4H98.0999V12.9H92.9Z" fill="#077A97"/>
<path d="M108.2 26.4V23.4H118.1V19.6H108.2V16.9H120.3L121.5 12.9H103V30.4H121.4V26.4H108.2Z" fill="#077A97"/>
<path d="M142.7 14.3C141.3 13.3 139.6 12.8 137.5 12.8H125.3V30.4H130.5V24.4H137.5C139.7 24.4 141.5 24 142.8 23.1C144.1 22.2 144.8 20.8 144.8 18.8C144.8 16.8 144.1 15.3 142.7 14.3ZM137.2 20.4H130.5V17.1H137.2C138.8 17.1 139.5 17.7 139.5 18.8C139.5 19.9 138.8 20.4 137.2 20.4Z" fill="#077A97"/>
<path d="M148.4 12.9V30.4H153.6V17.1H164.4L165.6 12.9H148.4Z" fill="#077A97"/>
<path d="M186.2 15C184.1 13.4 181.3 12.6 177.6 12.6C173.9 12.6 171.1 13.4 169 15C166.9 16.6 165.9 18.8 165.9 21.7C165.9 24.6 166.9 26.8 169 28.4C171.1 30 173.9 30.8 177.6 30.8C181.3 30.8 184.1 30 186.2 28.4C188.3 26.8 189.3 24.6 189.3 21.7C189.3 18.8 188.2 16.6 186.2 15ZM182.4 25.2C181.3 26.1 179.7 26.5 177.6 26.5C175.6 26.5 174 26.1 172.8 25.2C171.7 24.3 171.1 23.1 171.1 21.7C171.1 20.3 171.7 19.1 172.8 18.2C173.9 17.3 175.5 16.9 177.6 16.9C179.6 16.9 181.2 17.3 182.4 18.2C183.5 19.1 184.1 20.3 184.1 21.7C184.1 23.1 183.5 24.3 182.4 25.2Z" fill="#077A97"/>
<path d="M226.9 21.3L235.4 12.9H229.1L222.8 19.6H220.3V12.9H215.1V30.4H220.3V23.6H222.9L229.6 30.4H236.2L226.9 21.3Z" fill="#077A97"/>
<path d="M253.1 12.9H245.1L237.4 30.5H242.5L243.9 27.1H254.1L255.5 30.5H260.8L253.1 12.9ZM245.6 23.1L249 15.1L252.4 23.1H245.6Z" fill="#077A97"/>
<path d="M279.2 12.9V19.4H269.1V12.9H263.8V30.4H269.1V23.6H279.2V30.4H284.4V12.9H279.2Z" fill="#077A97"/>
<path d="M196.7 21.7C196.7 23.2 197.2 24.4 198.3 25.2C199.4 26.1 200.9 26.2 203 26.2H211.2V30.4H203C199.4 30.4 196.5 29.9 194.5 28.3C192.5 26.7 191.5 24.5 191.5 21.6C191.5 18.7 192.5 16.5 194.4 14.9C196.4 13.3 199.1 12.8 202.6 12.8H211.7L210.4 17H202.8C202.7 17 202.6 17 202.6 17C200.7 17 199.2 17.1 198.2 18C197.2 19 196.7 20.2 196.7 21.7Z" fill="#077A97"/>
<path d="M44.7999 39.4L37.9999 27.6C35.0999 22.5 29.1999 20.2 23.7999 21.5C23.8999 21.5 24.1 21.6 24.2 21.6C24.3 21.6 24.3 21.7 24.4 21.7C27.8 23 30.4999 25.5 31.9999 28.8C33.5999 32.1 33.6999 35.9 32.4999 39.4H44.7999ZM28.5999 11.3L22.4999 0.700012L15.7 12.5C14 15.5 13.6 18.9 14.4 22.2C15 24.3 15.9999 26.2 17.4999 27.8C17.4999 27.7 17.4 27.5 17.4 27.4C17.4 27.3 17.4 27.3 17.4 27.2C16.2 19.8 21.1999 12.7 28.5999 11.3ZM20.7 31.3C20.6 31.3 20.5999 31.2 20.4999 31.2C17.0999 29.9 14.4 27.4 12.9 24.1C12.2 22.6 11.7999 21 11.5999 19.4L7.59991 26.4C10.6999 30.7 16.0999 32.6 21.0999 31.4C20.9999 31.4 20.9 31.4 20.7 31.3ZM25.7999 30.4C23.1999 32.6 20 33.6 16.9 33.6C13 33.6 8.99993 31.9 6.29993 28.7L0.199951 39.3H13.7999C19.6999 39.3 24.6 35.4 26.2 30C26 30.2 25.8999 30.3 25.7999 30.4ZM33.9999 20.6L29.9999 13.6C24.6999 14.1 20.3 17.9 18.9 22.8C19 22.7 19.1 22.6 19.2 22.5C23.4 19 29.2999 18.4 33.9999 20.6ZM19.9 22.1C19.9 22.1 19.9999 22.1 19.9999 22C19.9999 22 19.9 22 19.9 22.1ZM30.5999 30.8C29.9999 28.7 28.9999 26.8 27.4999 25.2C27.4999 25.3 27.5999 25.5 27.5999 25.6C27.5999 25.7 27.5999 25.7 27.5999 25.8C28.4999 31.2 26.0999 36.5 21.7999 39.4H29.9C31.1 36.7 31.2999 33.7 30.5999 30.8Z" fill="#F08224"/>
</svg>
