<svg width="159" height="159" viewBox="0 0 159 159" fill="none" xmlns="http://www.w3.org/2000/svg">
<rect width="159" height="159" fill="#F5F5F5"/>
<g clip-path="url(#clip0_0_1)">
<path d="M1258.2 -260.5H-661.8V775H1258.2V-260.5Z" fill="#E6E6E6"/>
<path d="M-626.9 760H1223.5C1234.4 760 1243.3 751.1 1243.3 740.2V-219C1243.3 -229.9 1234.4 -238.8 1223.5 -238.8H-626.9C-637.8 -238.8 -646.7 -229.9 -646.7 -219V740.2C-646.7 751.1 -637.9 760 -626.9 760Z" fill="#F2F2F2"/>
<path d="M124.1 158.6H33.9999C15.1999 158.6 -6.10352e-05 143.4 -6.10352e-05 124.6V34.4C-6.10352e-05 15.6 15.1999 0.399994 33.9999 0.399994H124.2C143 0.399994 158.2 15.6 158.2 34.4V124.6C158.1 143.3 142.9 158.6 124.1 158.6Z" fill="#FFFFFF"/>
<g opacity="0.3">
<path d="M124.1 158.6H33.9999C15.1999 158.6 -6.10352e-05 143.4 -6.10352e-05 124.6V34.4C-6.10352e-05 15.6 15.1999 0.399994 33.9999 0.399994H124.2C143 0.399994 158.2 15.6 158.2 34.4V124.6C158.1 143.3 142.9 158.6 124.1 158.6Z" fill="#010202"/>
</g>
<path d="M121.7 59H117.7V53H34.7999V48.9H121.7V59Z" fill="#CDCCCC"/>
<path d="M37.9999 49.8H33.9999V58.2H37.9999V49.8Z" fill="#CDCCCC"/>
<path d="M50.5999 140.8L68.2 50.6L72.5999 29.9H84.7999L97.4 101.3H98.0999L97.4999 101.8L103.4 135.3L99.4 136L93.9 104.8L93.7999 104.9L50.5999 140.8ZM61.7 105.3L56.7999 130.4L86.9999 105.3H61.7ZM65.9 101.3H93.4L87.9 70.3L65.9 101.3ZM75.9 33.9L72.2 51.3L63.0999 98.2L81.2 72.6L69.4999 72.2L69.5999 68.2L87.7 68.8L81.4999 33.9H75.9Z" fill="#CDCCCC"/>
<path d="M143.219 46.1709L100.319 77.4627L102.676 80.6943L145.576 49.4025L143.219 46.1709Z" fill="#CDCCCC"/>
<path d="M14.7891 46.1278L12.4319 49.3594L55.3314 80.6512L57.6886 77.4196L14.7891 46.1278Z" fill="#CDCCCC"/>
<path d="M143.182 56.2828L100.283 87.5746L102.64 90.8062L145.539 59.5144L143.182 56.2828Z" fill="#CDCCCC"/>
<path d="M14.82 56.312L12.4628 59.5436L55.3623 90.8355L57.7195 87.6039L14.82 56.312Z" fill="#CDCCCC"/>
</g>
<defs>
<clipPath id="clip0_0_1">
<rect width="1920" height="1080" fill="white" transform="translate(-661 -305)"/>
</clipPath>
</defs>
</svg>
