<svg width="159" height="159" viewBox="0 0 159 159" fill="none" xmlns="http://www.w3.org/2000/svg">
<rect width="159" height="159" fill="#F5F5F5"/>
<g clip-path="url(#clip0_0_1)">
<path d="M1045.2 -260.5H-874.8V775H1045.2V-260.5Z" fill="#E6E6E6"/>
<path d="M-839.9 760H1010.5C1021.4 760 1030.3 751.1 1030.3 740.2V-219C1030.3 -229.9 1021.4 -238.8 1010.5 -238.8H-839.9C-850.8 -238.8 -859.7 -229.9 -859.7 -219V740.2C-859.7 751.1 -850.9 760 -839.9 760Z" fill="#F2F2F2"/>
<path d="M124.3 158.6H34.0999C15.2999 158.6 0.0999146 143.4 0.0999146 124.6V34.4C0.0999146 15.6 15.2999 0.399994 34.0999 0.399994H124.3C143.1 0.399994 158.3 15.6 158.3 34.4V124.6C158.3 143.3 143.1 158.6 124.3 158.6Z" fill="white"/>
<g opacity="0.3">
<path d="M124.3 158.6H34.0999C15.2999 158.6 0.0999146 143.4 0.0999146 124.6V34.4C0.0999146 15.6 15.2999 0.399994 34.0999 0.399994H124.3C143.1 0.399994 158.3 15.6 158.3 34.4V124.6C158.3 143.3 143.1 158.6 124.3 158.6Z" fill="#010202"/>
</g>
<path d="M87.2999 110.1H28.4V114.8H87.2999V110.1Z" fill="#CDCCCC"/>
<path d="M82.7999 103.5L78.2 103C79.3 93 85.5999 85.5 91.5999 78.3C98.0999 70.5 104.8 62.4 106.1 50.6C107.9 34.6 89.9 22.5 89.7 22.3L92.2999 18.4C93.0999 19 112.8 32.3 110.8 51.1C109.4 64.2 101.9 73.3 95.2999 81.2C89.2999 88.3 83.7999 94.9 82.7999 103.5Z" fill="#CDCCCC"/>
<path d="M96.9 139.8C96.3 139.5 81.8999 131.3 83.4999 116.9C84.3999 109.3 92.4999 101.6 101.1 93.3C110 84.8 119.1 76 120 67.9C121.2 56.7 108.5 48.1 108.4 48.1L111 44.2C111.6 44.6 126.2 54.5 124.7 68.4C123.6 78.2 113.8 87.6 104.4 96.7C96.8 104 88.8999 111.6 88.1999 117.5C86.8999 128.7 99.0999 135.7 99.1999 135.7L96.9 139.8Z" fill="#CDCCCC"/>
<path d="M73.5999 127.7C72.9999 122.3 69.7999 117.9 66.4999 113.9L64.7999 111.9C59.9999 106.1 54.5 99.4 53.4 89.7C51.9 75.7 66.3999 65.9 67.0999 65.5L69.6999 69.4C69.5999 69.5 56.8999 78.1 58.0999 89.2C58.9999 97.5 63.8 103.3 68.4 108.9L70.0999 111C73.7999 115.5 77.4999 120.5 78.1999 127.2L73.5999 127.7Z" fill="#CDCCCC"/>
<path d="M71.2999 77.4C70.9999 77 63.6 67.3 68.9 57.9C71.6 53.1 76.3 50.7 80.7 48.4C85.4 46 89.9 43.7 92.7 38.7C96.4 32.1 90.8 23.2 90.7 23.1L94.5999 20.5C94.8999 21 101.9 31.8 96.7999 40.9C93.2999 47.1 87.7 50 82.9 52.5C78.7 54.7 75 56.5 73 60.1C69.2 66.8 75 74.3 75 74.4L71.2999 77.4Z" fill="#CDCCCC"/>
</g>
<defs>
<clipPath id="clip0_0_1">
<rect width="1920" height="1080" fill="white" transform="translate(-874 -305)"/>
</clipPath>
</defs>
</svg>
