<svg width="159" height="159" viewBox="0 0 159 159" fill="none" xmlns="http://www.w3.org/2000/svg">
<rect width="159" height="159" fill="#F5F5F5"/>
<g clip-path="url(#clip0_0_1)">
<path d="M831.2 -260.5H-1088.8V775H831.2V-260.5Z" fill="#E6E6E6"/>
<path d="M-1053.9 760H796.5C807.4 760 816.3 751.1 816.3 740.2V-219C816.3 -229.9 807.4 -238.8 796.5 -238.8H-1053.9C-1064.8 -238.8 -1073.7 -229.9 -1073.7 -219V740.2C-1073.7 751.1 -1064.9 760 -1053.9 760Z" fill="#F2F2F2"/>
<path d="M124.8 158.6H34.6C15.8 158.6 0.599976 143.4 0.599976 124.6V34.4C0.599976 15.6 15.8 0.399994 34.6 0.399994H124.8C143.6 0.399994 158.8 15.6 158.8 34.4V124.6C158.8 143.3 143.6 158.6 124.8 158.6Z" fill="white"/>
<g opacity="0.3">
<path d="M124.8 158.6H34.6C15.8 158.6 0.599976 143.4 0.599976 124.6V34.4C0.599976 15.6 15.8 0.399994 34.6 0.399994H124.8C143.6 0.399994 158.8 15.6 158.8 34.4V124.6C158.8 143.3 143.6 158.6 124.8 158.6Z" fill="#010202"/>
</g>
<path d="M81.7 60.1H78V100.6H81.7V60.1Z" fill="#CDCCCC"/>
<path d="M88.5 73.7H84.8V87H88.5V73.7Z" fill="#CDCCCC"/>
<path d="M94.9 71.7H91.2V88.9H94.9V71.7Z" fill="#CDCCCC"/>
<path d="M101.8 76.6H98.1V84.2H101.8V76.6Z" fill="#CDCCCC"/>
<path d="M62 76.6H58.3V84.2H62V76.6Z" fill="#CDCCCC"/>
<path d="M54 78.4H50.3V82.2H54V78.4Z" fill="#CDCCCC"/>
<path d="M112.7 78.4H109V82.2H112.7V78.4Z" fill="#CDCCCC"/>
<path d="M107.3 76.6H103.6V84.2H107.3V76.6Z" fill="#CDCCCC"/>
<path d="M68.3 71.7H64.6V88.9H68.3V71.7Z" fill="#CDCCCC"/>
<path d="M75.1 67H71.4V93.6H75.1V67Z" fill="#CDCCCC"/>
<path d="M40.5 116.6C39.8 116.3 22.3 109.5 22.3 79.6C22.3 55.4 39.4 44.7 40.2 44.2L42.1 47.3C41.4 47.7 26 57.5 26 79.6C26 106.8 41.1 112.9 41.8 113.2L40.5 116.6Z" fill="#CDCCCC"/>
<path d="M49.7 107.5C49.1 107.3 36 102.1 36 79.8C36 61.8 48.8 53.7 49.4 53.4L51.3 56.5C50.8 56.8 39.7 63.9 39.7 79.8C39.7 99.6 50.9 104 51 104L49.7 107.5Z" fill="#CDCCCC"/>
<path d="M120.7 116.6L119.4 113.2C120 113 135.2 106.8 135.2 79.6C135.2 57.5 119.3 47.4 119.1 47.3L121 44.2C121.7 44.6 138.9 55.4 138.9 79.6C138.9 109.5 121.4 116.3 120.7 116.6Z" fill="#CDCCCC"/>
<path d="M111.5 107.5L110.2 104.1C110.6 103.9 121.5 99.5 121.5 79.9C121.5 63.9 110 56.7 109.9 56.6L111.8 53.5C112.3 53.8 125.2 61.9 125.2 79.9C125.1 102.1 112 107.3 111.5 107.5Z" fill="#CDCCCC"/>
</g>
<defs>
<clipPath id="clip0_0_1">
<rect width="1920" height="1080" fill="white" transform="translate(-1088 -305)"/>
</clipPath>
</defs>
</svg>
