<svg width="159" height="159" viewBox="0 0 159 159" fill="none" xmlns="http://www.w3.org/2000/svg">
<rect width="159" height="159" fill="#F5F5F5"/>
<g clip-path="url(#clip0_0_1)">
<path d="M1360.2 -497.5H-559.8V538H1360.2V-497.5Z" fill="#E6E6E6"/>
<path d="M-524.9 523H1325.5C1336.4 523 1345.3 514.1 1345.3 503.2V-456C1345.3 -466.9 1336.4 -475.8 1325.5 -475.8H-524.9C-535.8 -475.8 -544.7 -466.9 -544.7 -456V503.2C-544.7 514.1 -535.9 523 -524.9 523Z" fill="#F2F2F2"/>
<path d="M124.7 158.4H34.4999C15.6999 158.4 0.499939 143.2 0.499939 124.4V34.2C0.499939 15.4 15.6999 0.200012 34.4999 0.200012H124.7C143.5 0.200012 158.7 15.4 158.7 34.2V124.4C158.7 143.2 143.5 158.4 124.7 158.4Z" fill="white"/>
<g opacity="0.3">
<path d="M124.7 158.4H34.4999C15.6999 158.4 0.499939 143.2 0.499939 124.4V34.2C0.499939 15.4 15.6999 0.200012 34.4999 0.200012H124.7C143.5 0.200012 158.7 15.4 158.7 34.2V124.4C158.7 143.2 143.5 158.4 124.7 158.4Z" fill="#010202"/>
</g>
<path d="M141.5 95.3C141.2 95.1 114.7 79.8 79.7999 79.8C44.5999 79.8 15.7999 91.6 15.4999 91.7L13.9999 88.1C14.2999 88 43.8999 75.9 79.7999 75.9C115.9 75.9 142.4 91.3 143.5 91.9L141.5 95.3Z" fill="#CDCCCC"/>
<path d="M69.2999 135C31.4999 135 14.3999 124.3 13.5999 123.8L15.7 120.5C15.9 120.6 34.8999 132.5 76.7999 131C118.9 129.5 136.6 122.3 136.7 122.2L138.2 125.8C137.5 126.1 119.8 133.3 76.9 134.9C74.3 135 71.6999 135 69.2999 135Z" fill="#CDCCCC"/>
<path d="M77.9999 125.7C52.9999 125.7 33.4 117 33.4 105.9C33.4 94.8 52.9999 86.1 77.9999 86.1C103 86.1 122.6 94.8 122.6 105.9C122.6 117 103 125.7 77.9999 125.7ZM77.9999 90C53.6999 90 37.2999 98.2 37.2999 105.9C37.2999 113.6 53.6999 121.8 77.9999 121.8C102.3 121.8 118.7 113.6 118.7 105.9C118.7 98.2 102.4 90 77.9999 90Z" fill="#CDCCCC"/>
<path d="M77.2 118.3C64 118.3 53.5999 112.9 53.5999 105.9C53.5999 99 64 93.5 77.2 93.5C90.4 93.5 100.8 98.9 100.8 105.9C100.8 112.9 90.5 118.3 77.2 118.3ZM77.2 97.5C65.6 97.5 57.4999 102 57.4999 106C57.4999 110 65.6 114.5 77.2 114.5C88.7999 114.5 96.9 110 96.9 106C96.9 101.9 88.9 97.5 77.2 97.5Z" fill="#CDCCCC"/>
<path d="M76.9999 113.1C73.2999 113.1 70.2 110.1 70.2 106.3C70.2 102.5 73.1999 99.5 76.9999 99.5C80.7999 99.5 83.7999 102.5 83.7999 106.3C83.7999 110.1 80.6999 113.1 76.9999 113.1ZM76.9999 103.4C75.3999 103.4 74.0999 104.7 74.0999 106.3C74.0999 107.9 75.3999 109.2 76.9999 109.2C78.5999 109.2 79.9 107.9 79.9 106.3C79.9 104.7 78.4999 103.4 76.9999 103.4Z" fill="#CDCCCC"/>
<path d="M81.9 96L78.7 93.8L99.9 62.7H76.2999L108.1 21.6L109.2 26L84.2 58.9H107.2L81.9 96Z" fill="#CDCCCC"/>
</g>
<defs>
<clipPath id="clip0_0_1">
<rect width="1920" height="1080" fill="white" transform="translate(-559 -542)"/>
</clipPath>
</defs>
</svg>
