<svg width="159" height="159" viewBox="0 0 159 159" fill="none" xmlns="http://www.w3.org/2000/svg">
<rect width="159" height="159" fill="#F5F5F5"/>
<g clip-path="url(#clip0_0_1)">
<path d="M1145.2 -497.5H-774.8V538H1145.2V-497.5Z" fill="#E6E6E6"/>
<path d="M-739.9 523H1110.5C1121.4 523 1130.3 514.1 1130.3 503.2V-456C1130.3 -466.9 1121.4 -475.8 1110.5 -475.8H-739.9C-750.8 -475.8 -759.7 -466.9 -759.7 -456V503.2C-759.7 514.1 -750.9 523 -739.9 523Z" fill="#F2F2F2"/>
<path d="M124.1 158.4H33.9999C15.1999 158.4 -6.10352e-05 143.2 -6.10352e-05 124.4V34.2C-6.10352e-05 15.4 15.1999 0.200012 33.9999 0.200012H124.2C143 0.200012 158.2 15.4 158.2 34.2V124.4C158.1 143.2 142.9 158.4 124.1 158.4Z" fill="#F08224"/>
<g opacity="0.3">
<path d="M124.1 158.4H33.9999C15.1999 158.4 -6.10352e-05 143.2 -6.10352e-05 124.4V34.2C-6.10352e-05 15.4 15.1999 0.200012 33.9999 0.200012H124.2C143 0.200012 158.2 15.4 158.2 34.2V124.4C158.1 143.2 142.9 158.4 124.1 158.4Z" fill="#010202"/>
</g>
<path d="M80.7 124.1L76.9 122.1V40.2L80.7 42.2V124.1Z" fill="white"/>
<path d="M58.7999 83.1H53.9999L55.9999 79.2H58.7999C63.5999 79.2 67.5999 75.5 67.5999 70.9C67.5999 66.3 63.6999 62.6 58.7999 62.6V58.7C65.7999 58.7 71.4 64.2 71.4 70.9C71.5 77.6 65.7999 83.1 58.7999 83.1Z" fill="white"/>
<path d="M58.7999 103.6H53.9999L55.9999 99.7H58.7999C63.5999 99.7 67.5999 96 67.5999 91.4C67.5999 86.8 63.6999 83.1 58.7999 83.1V79.2C65.7999 79.2 71.4 84.7 71.4 91.4C71.5 98.1 65.7999 103.6 58.7999 103.6Z" fill="white"/>
<path d="M58.7999 62.6H53.9999L55.9999 58.7H58.7999C63.5999 58.7 67.5999 55 67.5999 50.4C67.5999 45.8 63.6999 42.1 58.7999 42.1H33.2L35.2 38.2H58.7999C65.7999 38.2 71.4 43.7 71.4 50.4C71.5 57.1 65.7999 62.6 58.7999 62.6Z" fill="white"/>
<path d="M58.7999 124.1H33.2999L35.2999 120.2H58.7999C63.5999 120.2 67.5999 116.5 67.5999 111.9C67.5999 107.3 63.6999 103.6 58.7999 103.6V99.7C65.7999 99.7 71.4 105.2 71.4 111.9C71.5 118.6 65.7999 124.1 58.7999 124.1Z" fill="white"/>
<path d="M103.2 83.1H100.4C93.4 83.1 87.7999 77.6 87.7999 70.9C87.7999 64.2 93.5 58.7 100.4 58.7V62.6C95.6 62.6 91.7 66.3 91.7 70.9C91.7 75.5 95.6 79.2 100.4 79.2H105.2L103.2 83.1Z" fill="white"/>
<path d="M103.2 103.6H100.4C93.4 103.6 87.7999 98.1 87.7999 91.4C87.7999 84.7 93.5 79.2 100.4 79.2V83.1C95.6 83.1 91.7 86.8 91.7 91.4C91.7 96 95.6 99.7 100.4 99.7H105.2L103.2 103.6Z" fill="white"/>
<path d="M103.2 62.6H100.4C93.4 62.6 87.7999 57.1 87.7999 50.4C87.7999 43.7 93.5 38.2 100.4 38.2H128L126 42.1H100.4C95.6 42.1 91.7 45.8 91.7 50.4C91.7 55 95.6 58.7 100.4 58.7H105.2L103.2 62.6Z" fill="white"/>
<path d="M125.9 124.1H100.4C93.4 124.1 87.7999 118.6 87.7999 111.9C87.7999 105.2 93.5 99.7 100.4 99.7V103.6C95.6 103.6 91.7 107.3 91.7 111.9C91.7 116.5 95.6 120.2 100.4 120.2H127.9L125.9 124.1Z" fill="white"/>
</g>
<defs>
<clipPath id="clip0_0_1">
<rect width="1920" height="1080" fill="white" transform="translate(-774 -542)"/>
</clipPath>
</defs>
</svg>
