<svg width="159" height="159" viewBox="0 0 159 159" fill="none" xmlns="http://www.w3.org/2000/svg">
<rect width="159" height="159" fill="#F5F5F5"/>
<g clip-path="url(#clip0_0_1)">
<path d="M931.2 -497.5H-988.8V538H931.2V-497.5Z" fill="#E6E6E6"/>
<path d="M-953.9 523H896.5C907.4 523 916.3 514.1 916.3 503.2V-456C916.3 -466.9 907.4 -475.8 896.5 -475.8H-953.9C-964.8 -475.8 -973.7 -466.9 -973.7 -456V503.2C-973.7 514.1 -964.9 523 -953.9 523Z" fill="#F2F2F2"/>
<path d="M124.5 158.4H34.2999C15.4999 158.4 0.299927 143.2 0.299927 124.4V34.2C0.299927 15.4 15.4999 0.200012 34.2999 0.200012H124.5C143.3 0.200012 158.5 15.4 158.5 34.2V124.4C158.5 143.2 143.3 158.4 124.5 158.4Z" fill="white"/>
<g opacity="0.3">
<path d="M124.5 158.4H34.2999C15.4999 158.4 0.299927 143.2 0.299927 124.4V34.2C0.299927 15.4 15.4999 0.200012 34.2999 0.200012H124.5C143.3 0.200012 158.5 15.4 158.5 34.2V124.4C158.5 143.2 143.3 158.4 124.5 158.4Z" fill="#010202"/>
</g>
<path d="M99.3 120.6L97.6999 117.1C111.9 110.8 121 96.6 121 81.1C121 59.4 103.3 41.7 81.5999 41.7C59.8999 41.7 42.1999 59.4 42.1999 81.1C42.1999 96.6 51.3 110.7 65.4 117L63.8 120.5C48.3 113.5 38.3 98 38.3 81C38.3 57.1 57.6999 37.7 81.5999 37.7C105.5 37.7 124.9 57.1 124.9 81C124.9 98.1 114.9 113.6 99.3 120.6Z" fill="#CDCCCC"/>
<path d="M64.1999 120.4H38.6999L40.6999 116.6H64.1999V120.4Z" fill="#CDCCCC"/>
<path d="M123.9 120.4H99.3V116.6H125.9L123.9 120.4Z" fill="#CDCCCC"/>
</g>
<defs>
<clipPath id="clip0_0_1">
<rect width="1920" height="1080" fill="white" transform="translate(-988 -542)"/>
</clipPath>
</defs>
</svg>
