<svg width="159" height="159" viewBox="0 0 159 159" fill="none" xmlns="http://www.w3.org/2000/svg">
<rect width="159" height="159" fill="#F5F5F5"/>
<g clip-path="url(#clip0_0_1)">
<path d="M717.2 -497.5H-1202.8V538H717.2V-497.5Z" fill="#E6E6E6"/>
<path d="M-1167.9 523H682.5C693.4 523 702.3 514.1 702.3 503.2V-456C702.3 -466.9 693.4 -475.8 682.5 -475.8H-1167.9C-1178.8 -475.8 -1187.7 -466.9 -1187.7 -456V503.2C-1187.7 514.1 -1178.9 523 -1167.9 523Z" fill="#F2F2F2"/>
<path d="M125 158.4H34.8C16 158.4 0.799988 143.2 0.799988 124.4V34.2C0.799988 15.4 16 0.200012 34.8 0.200012H125C143.8 0.200012 159 15.4 159 34.2V124.4C158.9 143.2 143.7 158.4 125 158.4Z" fill="white"/>
<g opacity="0.3">
<path d="M125 158.4H34.8C16 158.4 0.799988 143.2 0.799988 124.4V34.2C0.799988 15.4 16 0.200012 34.8 0.200012H125C143.8 0.200012 159 15.4 159 34.2V124.4C158.9 143.2 143.7 158.4 125 158.4Z" fill="#010202"/>
</g>
<path d="M59.1999 88.4C58.9999 89.5 58.9 90.2 58.9 90.6C58.9 93.7 60.6 95.2 63.9 95.2C65.9 95.2 67.6999 94.6 69.1999 93.4L70.3 97C68.3 98.5 65.6999 99.2 62.5999 99.2C59.9999 99.2 57.9 98.5 56.4 97.1C54.9 95.7 54.0999 93.8 54.0999 91.3C54.0999 90.3 54.2 89.4 54.4 88.6L58.4 68.1H52.3L52.9999 64.1H59.1999L61.6999 53.5L65.4 56.5L63.9 64.1H74.4999L73.6999 68.1H63.0999L59.1999 88.4Z" fill="#CDCCCC"/>
<path d="M116.3 64.2L110.2 94.7C109 100.8 106.8 105.2 103.5 107.9C100.2 110.6 95.6999 112 89.9999 112C86.6999 112 83.7999 111.5 81.1999 110.6C78.5999 109.7 76.3999 108.4 74.5999 106.7L77.4 103.1C78.8 104.6 80.6 105.7 82.9 106.5C85.2 107.3 87.7 107.7 90.4 107.7C94.8 107.7 98.0999 106.7 100.6 104.7C103 102.7 104.6 99.6 105.5 95.3L106.3 91.5C104.6 93.4 102.6 94.9 100.3 95.9C97.9 96.9 95.2999 97.5 92.4999 97.5C87.8999 97.5 84.2 96.2 81.4 93.7C78.6 91.2 77.1999 87.8 77.1999 83.5C77.1999 79.8 77.9999 76.5 79.6999 73.5C81.3999 70.5 83.7 68.2 86.8 66.4C89.8 64.7 93.1999 63.8 96.9999 63.8C100.3 63.8 103.1 64.5 105.5 65.8C107.9 67.1 109.5 69.1 110.5 71.7L113 61L116.3 64.2ZM101 91.5C103.3 90.2 105.1 88.4 106.4 86C107.7 83.7 108.3 81 108.3 78.1C108.3 74.9 107.3 72.5 105.3 70.7C103.3 68.9 100.5 68 96.9 68C94 68 91.3999 68.7 89.0999 70C86.7999 71.3 84.9999 73.1 83.6999 75.5C82.3999 77.8 81.8 80.5 81.8 83.4C81.8 86.6 82.8 89 84.8 90.8C86.8 92.6 89.5999 93.5 93.1999 93.5C96.0999 93.4 98.6999 92.8 101 91.5Z" fill="#CDCCCC"/>
</g>
<defs>
<clipPath id="clip0_0_1">
<rect width="1920" height="1080" fill="white" transform="translate(-1202 -542)"/>
</clipPath>
</defs>
</svg>
